<svg xmlns="http://www.w3.org/2000/svg" width="1600" height="400" viewBox="0 0 1600 400">
  <defs>
    <linearGradient id="g" x1="0%" y1="0%" x2="100%" y2="100%">
      <stop offset="0%" stop-color="#0f172a"/>
      <stop offset="50%" stop-color="#1e40af"/>
      <stop offset="100%" stop-color="#60a5fa"/>
    </linearGradient>
  </defs>
  <rect width="1600" height="400" fill="url(#g)"/>
  <g fill="none" stroke="rgba(255,255,255,0.25)" stroke-width="6" stroke-linecap="round" stroke-linejoin="round" transform="translate(0,10)">
    <circle cx="400" cy="180" r="14"/>
    <path d="M400 195 Q395 215 405 230"/>
    <path d="M405 210 Q420 205 430 215"/>
    <path d="M405 230 Q390 245 395 260"/>
    <path d="M430 215 Q440 230 450 235"/>
  </g>
  <g opacity="0.15" fill="none" stroke="#ffffff" stroke-width="2">
    <path d="M0 320 C300 260, 600 380, 900 320 S1500 280, 1600 330"/>
    <path d="M0 350 C280 300, 620 330, 940 350 S1400 370, 1600 360"/>
  </g>
</svg>

